<svg xmlns="http://www.w3.org/2000/svg" viewBox="0 0 512 512" aria-hidden="true" role="img">
  <path d="M 61 23 L 57 28 L 57 33 L 58 35 L 114 91 L 114 92 L 77 129 L 20 72 L 18 71 L 14 71 L 12 72 L 8 76 L 8 78 L 5 85 L 5 88 L 4 89 L 3 99 L 2 100 L 2 121 L 3 122 L 3 128 L 4 129 L 4 133 L 6 137 L 7 143 L 16 162 L 25 174 L 39 187 L 48 192 L 50 194 L 62 200 L 65 200 L 75 204 L 80 204 L 81 205 L 86 205 L 87 206 L 105 206 L 106 205 L 113 205 L 118 203 L 127 202 L 196 271 L 109 358 L 86 370 L 84 372 L 77 375 L 75 377 L 68 380 L 66 382 L 61 384 L 52 390 L 27 440 L 26 446 L 29 451 L 59 481 L 63 483 L 70 482 L 118 458 L 122 454 L 125 447 L 131 438 L 134 431 L 136 429 L 139 422 L 141 420 L 144 413 L 146 411 L 151 401 L 238 314 L 239 314 L 311 386 L 311 389 L 310 390 L 310 393 L 308 398 L 308 405 L 307 406 L 307 427 L 308 428 L 308 433 L 309 434 L 310 442 L 311 443 L 313 451 L 320 465 L 326 474 L 338 487 L 353 498 L 365 504 L 370 505 L 373 507 L 376 507 L 381 509 L 385 509 L 386 510 L 391 510 L 392 511 L 411 511 L 412 510 L 418 510 L 423 508 L 427 508 L 438 504 L 442 498 L 441 493 L 384 436 L 384 435 L 421 398 L 478 455 L 480 455 L 481 456 L 487 455 L 490 452 L 490 450 L 494 440 L 494 437 L 495 436 L 495 432 L 496 431 L 496 413 L 497 412 L 497 410 L 496 409 L 495 396 L 493 392 L 493 389 L 492 388 L 491 383 L 483 366 L 479 360 L 475 356 L 475 355 L 458 339 L 452 336 L 447 332 L 445 332 L 436 327 L 434 327 L 430 325 L 427 325 L 423 323 L 412 322 L 411 321 L 394 321 L 393 322 L 385 322 L 384 323 L 381 323 L 376 325 L 372 325 L 187 140 L 188 139 L 188 136 L 190 131 L 190 127 L 191 126 L 191 117 L 192 116 L 191 97 L 190 96 L 189 87 L 188 86 L 185 75 L 174 55 L 157 37 L 140 26 L 138 26 L 128 21 L 125 21 L 121 19 L 113 18 L 112 17 L 105 17 L 104 16 L 88 16 L 87 17 L 81 17 L 80 18 L 76 18 L 75 19 L 68 20 L 65 22 Z M 446 4 L 440 3 L 436 1 L 430 1 L 429 0 L 418 0 L 417 1 L 412 1 L 411 2 L 405 3 L 400 6 L 396 7 L 390 11 L 332 62 L 323 78 L 321 80 L 320 83 L 318 85 L 317 88 L 315 90 L 314 93 L 312 95 L 311 98 L 309 100 L 308 103 L 306 105 L 305 108 L 303 110 L 302 113 L 300 115 L 299 118 L 297 120 L 296 123 L 294 125 L 293 128 L 291 130 L 290 133 L 288 135 L 287 138 L 285 140 L 284 143 L 282 145 L 281 148 L 277 151 L 245 161 L 242 163 L 240 167 L 240 171 L 241 173 L 336 268 L 338 269 L 343 269 L 347 266 L 349 262 L 359 230 L 360 229 L 363 228 L 368 224 L 371 223 L 373 221 L 376 220 L 378 218 L 381 217 L 383 215 L 386 214 L 388 212 L 391 211 L 393 209 L 396 208 L 398 206 L 401 205 L 403 203 L 406 202 L 421 192 L 424 191 L 426 189 L 429 188 L 431 186 L 434 185 L 436 183 L 439 182 L 441 180 L 450 175 L 496 122 L 503 112 L 503 110 L 506 105 L 508 95 L 509 94 L 509 78 L 508 77 L 508 72 L 502 57 L 498 51 L 458 11 L 448 6 Z" fill="#000000"/>
</svg>
